<?xml version="1.0" encoding="utf-8"?>
<!-- Generator: Adobe Illustrator 19.1.0, SVG Export Plug-In . SVG Version: 6.00 Build 0)  -->
<svg version="1.1" id="Layer_1" xmlns="http://www.w3.org/2000/svg" xmlns:xlink="http://www.w3.org/1999/xlink" x="0px" y="0px"
	 viewBox="64 -20.4 206.8 66.4" style="enable-background:new 64 -20.4 206.8 66.4;" xml:space="preserve">
<style type="text/css">
	.st0{fill:#6160AB;}
	.st1{fill:#3BC6F4;}
	.st2{fill:#6161AB;}
	.st3{fill:#527FC0;}
	.st4{fill:#3B4EA1;}
</style>
<g>
	<path class="st0" d="M248.9,6.9c-3.3,0-6,2.7-6,6c0,3,2.2,5.5,5.1,6l0,0c5,1.6,8.6,3.6,8.6,7.7c0,4.1-3.6,8.5-12.5,8.5
		c-6.6,0-12.2-2.4-16.6-5.7c-0.9-0.7-2-1-3-1c-2.8,0-5.4,2.5-5.4,5.4c0,1.1,0.4,2.2,1.1,3.1c4.3,5,14.1,8.1,23.4,8.1
		c17.1,0,24.5-9,24.5-19.6c0-10.5-7.2-14.9-15.3-17.5C252.4,7.8,249.9,6.9,248.9,6.9"/>
	<path class="st1" d="M242.7-20.2c-13.9,0-23,8.1-23,18.6c0,15.2,15.6,17,26.5,20.1c0.3,0.1,0.7,0.2,1,0.3c-2.5-0.7-4.3-3-4.3-5.8
		c0-3.3,2.7-6,6-6c0.1,0,0.3,0,0.5,0.1c-9.1-2.5-18.1-3.7-18.1-9.4c0-4.6,4.1-7.8,10.5-7.8c5.1,0,10.3,1.3,14.8,4.3
		c0.9,0.7,2,0.9,3,0.9c2.7,0,5.5-2.3,5.5-5.2c0-1-0.4-2.2-1.1-3C259.8-17.9,250.3-20.2,242.7-20.2"/>
	<path class="st2" d="M248.9,6.9c-3.3,0-6,2.7-6,6c0,2.7,1.8,5.1,4.3,5.8c0.4,0.1,0.8,0.1,1.2,0.1c3.3,0,6-2.7,6-6
		c0-2.7-1.8-4.9-4.2-5.7l0,0c-0.3-0.1-0.5-0.1-0.8-0.2C249.2,6.9,249,6.9,248.9,6.9"/>
	<path class="st3" d="M64.8-13.1v50.9c0-3.2,2.6-5.9,5.9-5.9h5.9V-7.3h-5.9C67.4-7.3,64.8-9.8,64.8-13.1"/>
	<path class="st0" d="M117.2,18.3c-3.2,0-5.9-2.6-5.9-5.9v0c0,11.4-7.5,19.6-17.9,19.6h-17v5.9c0,3.2-2.6,5.9-5.9,5.9h23.1l0.1,0
		c16.7-0.1,29.3-13.5,29.3-31.3C123,15.7,120.4,18.3,117.2,18.3"/>
	<path class="st4" d="M76.5,37.9V32h-5.9c-3.2,0-5.9,2.6-5.9,5.9c0,3.2,2.6,5.9,5.9,5.9C73.9,43.7,76.5,41.1,76.5,37.9L76.5,37.9z"
		/>
	<path class="st1" d="M93.8-18.9L93.8-18.9l-22.2,0c2.8,0.4,5,2.8,5,5.8v5.8h17c10.3,0,17.9,8.3,17.9,19.6v0c0-3.2,2.6-5.9,5.9-5.9
		c3.2,0,5.8,2.6,5.9,5.8C123-5.4,110.5-18.7,93.8-18.9"/>
	<path class="st4" d="M70.6-7.3h5.9v-5.8c0-2.9-2.2-5.4-5-5.8h-0.9c-3.2,0-5.9,2.6-5.9,5.8C64.8-9.8,67.4-7.3,70.6-7.3L70.6-7.3z"/>
	<path class="st4" d="M123,12.4c0-3.2-2.6-5.8-5.9-5.8c-3.2,0-5.9,2.6-5.9,5.9c0,3.2,2.6,5.9,5.9,5.9C120.4,18.3,123,15.7,123,12.4
		L123,12.4L123,12.4L123,12.4z"/>
	<path class="st0" d="M198.7,22l-32.9-38.8c-2.1-2.5-5.8-2.8-8.3-0.7c-2.5,2.1-2.8,5.8-0.7,8.3L200,41.6c-0.8-1-1.3-2.3-1.3-3.7V22"
		/>
	<path class="st3" d="M204.5-18.9c-3.2,0-5.9,2.6-5.9,5.9v35L209,34.1c1,1.2,1.4,2.6,1.4,4c0-0.1,0-0.1,0-0.2V-13
		C210.4-16.3,207.8-18.9,204.5-18.9"/>
	<path class="st1" d="M162.7,13.4c-3.2,0-5.9,2.6-5.9,5.9v18.4c0,3.2,2.6,5.9,5.9,5.9c3.2,0,5.9-2.6,5.9-5.9V19.3
		C168.5,16.1,165.9,13.4,162.7,13.4"/>
	<path class="st4" d="M209.3,41.3c0-0.1,0.1-0.1,0.1-0.2c0.1-0.1,0.1-0.2,0.2-0.3c0-0.1,0.1-0.1,0.1-0.2c0-0.1,0.1-0.2,0.1-0.3
		c0-0.1,0.1-0.2,0.1-0.2c0-0.1,0.1-0.2,0.1-0.3c0-0.1,0.1-0.2,0.1-0.3c0-0.1,0-0.2,0.1-0.3c0-0.1,0-0.2,0.1-0.3c0-0.1,0-0.2,0-0.3
		c0-0.1,0-0.2,0-0.3c0-0.1,0-0.2,0-0.4c0-1.4-0.4-2.8-1.4-4l-10.3-12.2v16c0,1.4,0.5,2.7,1.3,3.7l0,0l0.1,0.1
		c0.1,0.1,0.2,0.3,0.3,0.4c0.1,0.1,0.1,0.1,0.2,0.2c0.1,0.1,0.2,0.2,0.3,0.2c0.1,0.1,0.1,0.1,0.2,0.2c0.1,0.1,0.2,0.1,0.3,0.2
		c0.1,0,0.2,0.1,0.2,0.1c0.1,0.1,0.2,0.1,0.3,0.2c0.1,0,0.1,0.1,0.2,0.1c0.1,0.1,0.2,0.1,0.4,0.1c0.1,0,0.1,0,0.2,0.1
		c0.1,0,0.3,0.1,0.5,0.1c0,0,0.1,0,0.1,0c0.2,0,0.4,0.1,0.6,0.1l0,0c0.2,0,0.4,0,0.6,0c0.2,0,0.4,0,0.6,0c0.1,0,0.1,0,0.2,0
		c0.1,0,0.3,0,0.4-0.1c0.1,0,0.1,0,0.2,0c0.1,0,0.2-0.1,0.3-0.1c0.1,0,0.1,0,0.2-0.1c0.1,0,0.2-0.1,0.3-0.1c0.1,0,0.1,0,0.2-0.1
		c0.1-0.1,0.2-0.1,0.3-0.2c0.1,0,0.1-0.1,0.2-0.1c0.1-0.1,0.2-0.1,0.3-0.2c0,0,0.1-0.1,0.2-0.1c0.1-0.1,0.2-0.1,0.3-0.2
		c0.1,0,0.1-0.1,0.2-0.1c0.1-0.1,0.1-0.1,0.2-0.2c0.1-0.1,0.1-0.1,0.2-0.2c0.1-0.1,0.1-0.2,0.2-0.2c0.1-0.1,0.1-0.1,0.2-0.2
		C209.2,41.5,209.2,41.4,209.3,41.3L209.3,41.3z"/>
	<path class="st3" d="M138.7-18.9c-3.2,0-5.9,2.6-5.9,5.9v50.7c0,3.2,2.6,5.9,5.9,5.9c3.2,0,5.9-2.6,5.9-5.9V-13
		C144.5-16.3,141.9-18.9,138.7-18.9"/>
	<path class="st4" d="M254.3,12.9c0,3.3-2.7,6-6,6c-3.3,0-6-2.7-6-6c0-3.3,2.7-6,6-6C251.6,6.9,254.3,9.6,254.3,12.9L254.3,12.9z"/>
</g>
</svg>
